<?xml version="1.0" encoding="utf-8"?>
<!-- Generator: Adobe Illustrator 16.0.0, SVG Export Plug-In . SVG Version: 6.00 Build 0)  -->
<!DOCTYPE svg PUBLIC "-//W3C//DTD SVG 1.1//EN" "http://www.w3.org/Graphics/SVG/1.1/DTD/svg11.dtd">
<svg version="1.1" id="Layer_1" xmlns="http://www.w3.org/2000/svg" xmlns:xlink="http://www.w3.org/1999/xlink" x="0px" y="0px"
	 width="465.433px" height="318.52px" viewBox="0 0 465.433 318.52" enable-background="new 0 0 465.433 318.52"
	 xml:space="preserve">
<g>
	<g>
		<g>
			<g>
				<path fill="#FFB700" d="M184.539,92.951c-4.178-25.795-26.566-45.489-53.522-45.489c-21.354,0-39.82,12.334-48.673,30.261
					C117.769,57.522,170.995,85.222,184.539,92.951z"/>
				<path fill="#4EC1E0" d="M6.354,121.124c7.583,46.719,48.089,82.385,96.96,82.385c38.66,0,72.085-22.341,88.125-54.802
					C127.271,185.276,30.871,135.12,6.354,121.124z"/>
				<path fill="#00AF41" d="M94.608,214.755c-48.9-4.844-82.799-49.923-92.506-64.391c9.744,43.997,48.895,76.951,95.825,76.951
					c35.179,0,65.982-18.526,83.328-46.32C152.497,206.236,123.44,217.614,94.608,214.755z"/>
				<path fill="#004987" d="M197.999,120.151c0,0-76-161.19-195.726-27.629c0,0,39.149-87.509,124.353-73.707
					C211.824,32.638,197.999,120.151,197.999,120.151z"/>
			</g>
			<path fill="#00AF41" d="M100.814,210.833c28.942,2.854,58.275-9.339,87.422-36.205c-30.567,18.26-60.001,44.807-103.157,3.226
				c-41.324-39.815-62.501-28.257-75.225-31.693C16.931,157.171,50.876,205.894,100.814,210.833z"/>
		</g>
		<g>
			<g>
				<path fill="#004987" d="M3.273,248.763c0.087-0.015,0.201-0.024,0.342-0.031c0.14-0.008,0.281-0.012,0.428-0.012
					c0.133,0,0.263,0.004,0.396,0.012c0.132,0.008,0.25,0.019,0.352,0.031v14.439h6.756c0.015,0.088,0.027,0.201,0.032,0.34
					c0.008,0.141,0.012,0.262,0.012,0.365c0,0.117-0.003,0.237-0.012,0.363c-0.007,0.124-0.019,0.23-0.032,0.319H3.273V248.763z"/>
				<path fill="#004987" d="M13.992,248.763h8.474c0.014,0.088,0.025,0.196,0.032,0.319c0.007,0.124,0.012,0.247,0.012,0.363
					c0,0.104-0.004,0.226-0.012,0.364c-0.008,0.142-0.019,0.255-0.032,0.341h-6.955v5.351h5.59c0.015,0.087,0.027,0.194,0.032,0.317
					c0.009,0.127,0.013,0.248,0.013,0.364c0,0.104-0.004,0.223-0.013,0.363c-0.006,0.14-0.019,0.253-0.032,0.342h-5.59v6.316h7.153
					c0.014,0.089,0.025,0.196,0.032,0.318c0.008,0.125,0.011,0.247,0.011,0.363c0,0.104-0.003,0.225-0.011,0.364
					c-0.008,0.139-0.019,0.252-0.032,0.342h-8.671V248.763z"/>
				<path fill="#004987" d="M25.657,248.763c0.146-0.015,0.355-0.035,0.628-0.065c0.27-0.028,0.561-0.059,0.869-0.087
					c0.308-0.03,0.619-0.052,0.935-0.067c0.314-0.016,0.597-0.022,0.847-0.022c1.729,0,3.058,0.334,3.983,1.001
					c0.925,0.668,1.387,1.706,1.387,3.115c0,0.455-0.071,0.869-0.209,1.243c-0.139,0.373-0.326,0.71-0.561,1.013
					c-0.236,0.301-0.51,0.555-0.825,0.758c-0.314,0.205-0.642,0.362-0.981,0.464c0.457,0.06,0.896,0.181,1.322,0.363
					c0.424,0.184,0.803,0.439,1.133,0.771c0.331,0.33,0.594,0.741,0.793,1.233c0.196,0.49,0.297,1.081,0.297,1.768
					c0,0.796-0.158,1.478-0.474,2.049s-0.757,1.049-1.321,1.43c-0.564,0.381-1.232,0.664-2.001,0.849
					c-0.771,0.183-1.61,0.273-2.521,0.273c-0.235,0-0.498-0.008-0.793-0.022c-0.293-0.015-0.589-0.032-0.89-0.055
					c-0.302-0.021-0.595-0.052-0.88-0.089c-0.287-0.034-0.532-0.069-0.738-0.098V248.763z M29.268,255.5
					c1.189,0,2.057-0.264,2.607-0.793c0.549-0.529,0.825-1.216,0.825-2.068c0-0.793-0.291-1.456-0.869-1.992
					c-0.581-0.534-1.493-0.804-2.74-0.804c-0.382,0-0.745,0.015-1.09,0.043c-0.346,0.03-0.621,0.061-0.826,0.089v5.524L29.268,255.5
					L29.268,255.5z M27.175,263.356c0.206,0.028,0.48,0.056,0.826,0.076c0.345,0.023,0.707,0.034,1.09,0.034
					c0.573,0,1.134-0.051,1.684-0.155c0.55-0.102,1.037-0.277,1.465-0.527c0.426-0.251,0.765-0.58,1.023-0.99
					c0.255-0.41,0.385-0.925,0.385-1.544c0-0.615-0.11-1.132-0.33-1.55c-0.221-0.419-0.522-0.759-0.902-1.023
					c-0.383-0.264-0.829-0.455-1.343-0.572c-0.513-0.118-1.064-0.176-1.652-0.176h-2.245V263.356z"/>
				<path fill="#004987" d="M41.856,248.763c0.102-0.015,0.242-0.024,0.418-0.031c0.176-0.007,0.338-0.012,0.484-0.012
					c0.16,0,0.326,0.004,0.496,0.012c0.168,0.008,0.303,0.019,0.407,0.031l5.281,15.827c-0.087,0.015-0.213,0.024-0.373,0.031
					c-0.161,0.008-0.315,0.014-0.462,0.014c-0.133,0-0.271-0.006-0.418-0.014c-0.146-0.008-0.271-0.02-0.374-0.031l-1.321-4.029
					h-6.515l-1.256,4.029c-0.117,0.015-0.252,0.024-0.407,0.031c-0.154,0.008-0.297,0.014-0.429,0.014
					c-0.146,0-0.297-0.006-0.452-0.014c-0.153-0.008-0.274-0.02-0.363-0.031L41.856,248.763z M45.553,259.153l-2.839-8.805
					l-2.794,8.805H45.553z"/>
				<path fill="#004987" d="M51.386,248.763c0.102-0.015,0.239-0.024,0.407-0.031c0.169-0.008,0.313-0.012,0.43-0.012
					c0.117,0,0.255,0.004,0.418,0.012s0.295,0.019,0.397,0.031l7.571,13.252v-13.252c0.102-0.015,0.216-0.024,0.341-0.031
					c0.125-0.007,0.252-0.012,0.385-0.012c0.117,0,0.247,0.004,0.385,0.012c0.139,0.008,0.26,0.019,0.365,0.031v15.827
					c-0.088,0.015-0.217,0.024-0.385,0.031c-0.17,0.008-0.319,0.014-0.452,0.014c-0.117,0-0.255-0.006-0.418-0.014
					c-0.163-0.008-0.295-0.02-0.397-0.031l-7.571-13.142v13.142c-0.102,0.015-0.216,0.024-0.341,0.031s-0.253,0.014-0.384,0.014
					c-0.147,0-0.288-0.006-0.418-0.014c-0.133-0.008-0.244-0.02-0.331-0.031V248.763z"/>
				<path fill="#004987" d="M66.309,248.763h8.474c0.014,0.088,0.025,0.196,0.032,0.319c0.007,0.124,0.012,0.247,0.012,0.363
					c0,0.104-0.004,0.226-0.012,0.364c-0.008,0.142-0.019,0.255-0.032,0.341h-6.956v5.351h5.59c0.015,0.087,0.027,0.194,0.032,0.317
					c0.008,0.127,0.012,0.248,0.012,0.364c0,0.104-0.004,0.223-0.012,0.363c-0.006,0.14-0.019,0.253-0.032,0.342h-5.59v6.316h7.154
					c0.014,0.089,0.025,0.196,0.032,0.318c0.008,0.125,0.011,0.247,0.011,0.363c0,0.104-0.003,0.225-0.011,0.364
					c-0.008,0.139-0.019,0.252-0.032,0.342h-8.672V248.763z"/>
				<path fill="#004987" d="M77.379,262.829c0.205,0.057,0.418,0.125,0.639,0.196c0.22,0.073,0.466,0.14,0.737,0.197
					c0.272,0.059,0.577,0.11,0.914,0.155c0.338,0.043,0.727,0.065,1.167,0.065c0.705,0,1.31-0.084,1.817-0.252
					c0.506-0.169,0.924-0.396,1.255-0.682c0.33-0.287,0.576-0.624,0.737-1.014c0.162-0.389,0.243-0.811,0.243-1.265
					c0-0.44-0.055-0.818-0.166-1.134c-0.109-0.315-0.301-0.605-0.571-0.87c-0.272-0.262-0.646-0.518-1.124-0.758
					c-0.478-0.241-1.075-0.502-1.793-0.781c-0.515-0.192-1.001-0.396-1.464-0.617c-0.462-0.218-0.868-0.487-1.221-0.803
					c-0.353-0.315-0.631-0.694-0.836-1.135c-0.205-0.439-0.309-0.988-0.309-1.65c0-1.188,0.428-2.15,1.288-2.885
					c0.858-0.733,2.108-1.099,3.752-1.099c0.322,0,0.649,0.014,0.98,0.042c0.33,0.03,0.64,0.068,0.926,0.11
					c0.285,0.044,0.549,0.096,0.792,0.155c0.242,0.058,0.436,0.108,0.583,0.153c-0.029,0.219-0.07,0.444-0.121,0.672
					c-0.053,0.228-0.115,0.443-0.188,0.647c-0.353-0.117-0.804-0.222-1.353-0.318c-0.551-0.094-1.097-0.144-1.64-0.144
					c-1.219,0-2.092,0.251-2.619,0.751c-0.528,0.499-0.792,1.13-0.792,1.892c0,0.396,0.081,0.742,0.242,1.035
					c0.162,0.294,0.385,0.551,0.671,0.771c0.287,0.221,0.628,0.421,1.024,0.604c0.396,0.186,0.821,0.365,1.276,0.54
					c0.616,0.249,1.192,0.506,1.728,0.771c0.535,0.262,0.994,0.572,1.375,0.924c0.38,0.354,0.683,0.766,0.902,1.243
					c0.221,0.477,0.33,1.054,0.33,1.727c0,0.765-0.136,1.443-0.408,2.039c-0.271,0.594-0.656,1.092-1.154,1.494
					c-0.5,0.405-1.108,0.712-1.827,0.926c-0.719,0.214-1.526,0.318-2.422,0.318c-0.866,0-1.584-0.063-2.158-0.186
					c-0.571-0.126-1.106-0.27-1.606-0.431c0.03-0.22,0.083-0.458,0.155-0.715C77.209,263.264,77.292,263.034,77.379,262.829z"/>
				<path fill="#004987" d="M89.659,248.763h8.476c0.015,0.088,0.026,0.196,0.032,0.319c0.006,0.125,0.01,0.247,0.01,0.363
					c0,0.104-0.004,0.226-0.01,0.364c-0.008,0.142-0.019,0.255-0.032,0.341h-6.956v5.351h5.59c0.015,0.087,0.026,0.194,0.033,0.317
					c0.007,0.127,0.011,0.248,0.011,0.364c0,0.104-0.005,0.223-0.011,0.363c-0.008,0.14-0.019,0.253-0.033,0.342h-5.59v6.316h7.152
					c0.015,0.089,0.027,0.196,0.034,0.318c0.006,0.125,0.01,0.247,0.01,0.363c0,0.104-0.004,0.225-0.01,0.364
					c-0.008,0.139-0.021,0.252-0.034,0.342h-8.672V248.763z"/>
				<path fill="#004987" d="M116.469,262.785c0.117,0.221,0.219,0.433,0.308,0.639c0.087,0.206,0.153,0.417,0.198,0.638
					c-0.499,0.251-1.094,0.445-1.783,0.585s-1.417,0.21-2.179,0.21c-1.071,0-2.05-0.179-2.938-0.53
					c-0.887-0.352-1.648-0.865-2.277-1.541c-0.633-0.674-1.124-1.511-1.476-2.509c-0.353-0.997-0.529-2.142-0.529-3.433
					c0-1.322,0.172-2.499,0.518-3.533c0.345-1.037,0.829-1.907,1.452-2.619c0.625-0.713,1.379-1.256,2.268-1.629
					c0.889-0.375,1.882-0.562,2.982-0.562c0.926,0,1.695,0.065,2.311,0.197c0.618,0.133,1.065,0.243,1.343,0.33
					c-0.029,0.264-0.07,0.484-0.121,0.66c-0.051,0.176-0.129,0.389-0.231,0.639c-0.191-0.06-0.385-0.118-0.584-0.177
					c-0.196-0.059-0.42-0.11-0.671-0.153s-0.538-0.081-0.869-0.111c-0.331-0.028-0.716-0.043-1.155-0.043
					c-0.866,0-1.644,0.157-2.333,0.475c-0.688,0.315-1.276,0.773-1.761,1.375c-0.484,0.601-0.859,1.334-1.124,2.202
					c-0.263,0.865-0.395,1.848-0.395,2.949c0,1.13,0.145,2.111,0.44,2.947c0.293,0.836,0.701,1.529,1.221,2.08
					c0.521,0.55,1.13,0.958,1.826,1.222c0.699,0.264,1.448,0.396,2.257,0.396c0.689,0,1.317-0.065,1.881-0.196
					C115.614,263.158,116.086,262.99,116.469,262.785z"/>
				<path fill="#004987" d="M119.99,248.763h8.474c0.015,0.088,0.025,0.196,0.032,0.319c0.006,0.124,0.012,0.247,0.012,0.363
					c0,0.104-0.004,0.226-0.012,0.364c-0.008,0.142-0.019,0.255-0.032,0.341h-6.955v5.351h5.589
					c0.015,0.087,0.027,0.194,0.032,0.317c0.009,0.127,0.013,0.248,0.013,0.364c0,0.104-0.004,0.223-0.013,0.363
					c-0.006,0.14-0.018,0.253-0.032,0.342h-5.589v6.316h7.152c0.015,0.089,0.026,0.196,0.032,0.318
					c0.008,0.125,0.011,0.247,0.011,0.363c0,0.104-0.003,0.225-0.011,0.364c-0.008,0.139-0.018,0.252-0.032,0.342h-8.671V248.763z"
					/>
				<path fill="#004987" d="M131.654,248.763c0.103-0.015,0.239-0.024,0.407-0.031c0.17-0.008,0.313-0.012,0.43-0.012
					c0.117,0,0.255,0.004,0.418,0.012s0.295,0.019,0.397,0.031l7.571,13.252v-13.252c0.103-0.015,0.216-0.024,0.341-0.031
					c0.125-0.007,0.253-0.012,0.385-0.012c0.117,0,0.247,0.004,0.385,0.012s0.259,0.019,0.365,0.031v15.827
					c-0.088,0.015-0.217,0.024-0.385,0.031c-0.169,0.008-0.319,0.014-0.452,0.014c-0.116,0-0.255-0.006-0.418-0.014
					c-0.163-0.008-0.295-0.02-0.397-0.031l-7.572-13.142v13.142c-0.101,0.015-0.216,0.024-0.341,0.031
					c-0.125,0.007-0.253,0.014-0.384,0.014c-0.147,0-0.287-0.006-0.418-0.014c-0.133-0.008-0.244-0.02-0.331-0.031V248.763
					L131.654,248.763z"/>
				<path fill="#004987" d="M149.043,250.129h-4.248c-0.015-0.089-0.025-0.196-0.032-0.319c-0.007-0.123-0.011-0.245-0.011-0.364
					c0-0.102,0.003-0.219,0.011-0.353c0.008-0.132,0.019-0.242,0.032-0.33h10.014c0.015,0.088,0.027,0.191,0.032,0.309
					c0.009,0.117,0.013,0.234,0.013,0.352c0,0.104-0.004,0.225-0.013,0.364c-0.006,0.139-0.019,0.252-0.032,0.342h-4.247v14.461
					c-0.102,0.013-0.22,0.024-0.352,0.031c-0.133,0.008-0.264,0.012-0.396,0.012c-0.147,0-0.289-0.004-0.43-0.012
					c-0.139-0.008-0.252-0.02-0.34-0.031V250.129z"/>
				<path fill="#004987" d="M157.251,248.763h8.474c0.015,0.088,0.025,0.196,0.032,0.319c0.006,0.124,0.012,0.247,0.012,0.363
					c0,0.104-0.004,0.226-0.012,0.364c-0.008,0.142-0.019,0.255-0.032,0.341h-6.956v5.351h5.59c0.014,0.087,0.027,0.194,0.032,0.317
					c0.008,0.127,0.012,0.248,0.012,0.364c0,0.104-0.004,0.223-0.012,0.363c-0.007,0.14-0.019,0.253-0.032,0.342h-5.59v6.316h7.153
					c0.015,0.089,0.025,0.196,0.032,0.318c0.008,0.125,0.011,0.247,0.011,0.363c0,0.104-0.003,0.225-0.011,0.364
					c-0.008,0.139-0.019,0.252-0.032,0.342h-8.672V248.763z"/>
				<path fill="#004987" d="M168.916,248.698c0.323-0.028,0.606-0.056,0.848-0.078c0.243-0.023,0.477-0.043,0.705-0.064
					c0.228-0.024,0.465-0.037,0.714-0.045c0.25-0.007,0.543-0.011,0.88-0.011c0.704,0,1.398,0.073,2.08,0.219
					c0.683,0.146,1.295,0.401,1.838,0.76c0.542,0.36,0.98,0.843,1.31,1.451c0.331,0.61,0.495,1.377,0.495,2.301
					c0,0.573-0.102,1.094-0.308,1.563c-0.206,0.469-0.475,0.891-0.804,1.266c-0.33,0.373-0.712,0.696-1.146,0.968
					c-0.433,0.271-0.877,0.495-1.331,0.671l-0.176,0.065l5.04,6.823c-0.146,0.028-0.294,0.045-0.439,0.045c-0.147,0-0.295,0-0.44,0
					c-0.146,0-0.291,0-0.429,0c-0.139,0-0.283-0.017-0.43-0.045l-5.546-7.328v-0.089l0.484-0.132
					c0.499-0.132,0.982-0.304,1.453-0.517c0.469-0.214,0.883-0.473,1.243-0.771c0.361-0.299,0.65-0.655,0.869-1.066
					c0.221-0.412,0.33-0.895,0.33-1.453c0-1.144-0.353-2.003-1.056-2.575c-0.704-0.572-1.657-0.859-2.861-0.859
					c-0.308,0-0.593,0.008-0.858,0.022c-0.265,0.016-0.581,0.045-0.946,0.089v14.68c-0.103,0.015-0.228,0.026-0.374,0.033
					c-0.146,0.008-0.28,0.012-0.396,0.012c-0.133,0-0.263-0.004-0.397-0.012c-0.132-0.008-0.25-0.02-0.353-0.033v-15.889H168.916z"
					/>
				<path fill="#004987" d="M186.898,248.763h7.769c0.015,0.088,0.026,0.196,0.032,0.319c0.007,0.124,0.011,0.247,0.011,0.363
					c0,0.104-0.002,0.226-0.011,0.364c-0.008,0.142-0.018,0.255-0.032,0.341h-6.25v5.351h5.414c0.015,0.087,0.027,0.194,0.033,0.317
					c0.008,0.127,0.012,0.248,0.012,0.364c0,0.104-0.004,0.223-0.012,0.363c-0.007,0.14-0.019,0.253-0.033,0.342h-5.414v7.704
					c-0.101,0.015-0.221,0.024-0.352,0.031c-0.133,0.009-0.264,0.014-0.397,0.014c-0.146,0-0.289-0.005-0.427-0.014
					c-0.14-0.008-0.253-0.018-0.342-0.031V248.763L186.898,248.763z"/>
				<path fill="#004987" d="M203.451,264.852c-1.101,0-2.062-0.2-2.885-0.604c-0.824-0.405-1.5-0.97-2.037-1.695
					c-0.534-0.728-0.939-1.593-1.209-2.598c-0.272-1.006-0.408-2.103-0.408-3.29c0-1.189,0.136-2.281,0.408-3.279
					c0.271-0.996,0.675-1.859,1.209-2.585c0.535-0.727,1.213-1.291,2.037-1.695c0.823-0.404,1.782-0.605,2.885-0.605
					c1.102,0,2.06,0.201,2.883,0.605c0.821,0.404,1.5,0.969,2.036,1.695c0.536,0.726,0.939,1.589,1.21,2.585
					c0.271,0.998,0.408,2.092,0.408,3.279c0,1.188-0.137,2.284-0.408,3.29c-0.271,1.005-0.675,1.87-1.21,2.598
					c-0.534,0.726-1.213,1.29-2.036,1.695C205.511,264.651,204.552,264.852,203.451,264.852z M203.451,263.467
					c0.851,0,1.584-0.165,2.2-0.495c0.616-0.331,1.129-0.796,1.542-1.397c0.411-0.603,0.715-1.321,0.913-2.159
					c0.198-0.835,0.297-1.753,0.297-2.751c0-0.997-0.098-1.915-0.297-2.752c-0.196-0.835-0.502-1.55-0.913-2.145
					c-0.413-0.596-0.926-1.057-1.542-1.388c-0.616-0.329-1.349-0.495-2.2-0.495c-0.853,0-1.589,0.166-2.213,0.495
					c-0.625,0.331-1.138,0.794-1.542,1.388c-0.404,0.594-0.704,1.31-0.903,2.145c-0.196,0.837-0.297,1.755-0.297,2.752
					c0,0.998,0.099,1.916,0.297,2.751s0.5,1.556,0.903,2.159c0.403,0.603,0.917,1.066,1.542,1.397
					C201.863,263.302,202.598,263.467,203.451,263.467z"/>
				<path fill="#004987" d="M213.399,248.698c0.322-0.028,0.604-0.056,0.847-0.078c0.244-0.023,0.476-0.043,0.705-0.064
					c0.227-0.024,0.466-0.037,0.715-0.045c0.25-0.007,0.542-0.011,0.879-0.011c0.703,0,1.398,0.073,2.08,0.219
					c0.684,0.146,1.295,0.401,1.838,0.76c0.542,0.36,0.98,0.843,1.309,1.451c0.332,0.61,0.496,1.377,0.496,2.301
					c0,0.573-0.103,1.094-0.308,1.563c-0.206,0.469-0.475,0.891-0.805,1.266c-0.329,0.373-0.711,0.696-1.145,0.968
					c-0.433,0.271-0.876,0.495-1.331,0.671l-0.176,0.065l5.04,6.823c-0.146,0.028-0.294,0.045-0.439,0.045c-0.146,0-0.295,0-0.44,0
					c-0.147,0-0.291,0-0.429,0c-0.138,0-0.282-0.017-0.429-0.045l-5.546-7.328v-0.089l0.484-0.132
					c0.5-0.132,0.982-0.304,1.453-0.517c0.469-0.214,0.882-0.473,1.243-0.771s0.649-0.655,0.869-1.066
					c0.221-0.412,0.33-0.895,0.33-1.453c0-1.144-0.353-2.003-1.057-2.575c-0.703-0.572-1.657-0.859-2.861-0.859
					c-0.308,0-0.593,0.008-0.859,0.022c-0.265,0.016-0.581,0.045-0.946,0.089v14.68c-0.103,0.015-0.228,0.026-0.373,0.033
					c-0.146,0.008-0.28,0.012-0.397,0.012c-0.133,0-0.263-0.004-0.396-0.012c-0.132-0.008-0.25-0.02-0.353-0.033v-15.889H213.399z"
					/>
				<path fill="#004987" d="M231.38,248.763h8.473c0.016,0.088,0.026,0.196,0.034,0.319c0.005,0.124,0.01,0.247,0.01,0.363
					c0,0.104-0.002,0.226-0.01,0.364c-0.01,0.142-0.02,0.255-0.034,0.341h-6.954v5.351h5.591c0.013,0.087,0.026,0.194,0.031,0.317
					c0.008,0.127,0.012,0.248,0.012,0.364c0,0.104-0.004,0.223-0.012,0.363c-0.007,0.14-0.019,0.253-0.031,0.342h-5.591v6.316h7.153
					c0.014,0.089,0.024,0.196,0.032,0.318c0.008,0.125,0.01,0.247,0.01,0.363c0,0.104-0.002,0.225-0.01,0.364
					c-0.008,0.139-0.019,0.252-0.032,0.342h-8.672V248.763z"/>
				<path fill="#004987" d="M243.045,248.763c0.103-0.015,0.239-0.024,0.407-0.031c0.169-0.008,0.313-0.012,0.428-0.012
					c0.118,0,0.257,0.004,0.42,0.012c0.162,0.008,0.295,0.019,0.396,0.031l7.57,13.252v-13.252c0.103-0.015,0.216-0.024,0.342-0.031
					c0.124-0.008,0.254-0.012,0.384-0.012c0.118,0,0.247,0.004,0.387,0.012c0.139,0.008,0.26,0.019,0.362,0.031v15.827
					c-0.088,0.015-0.216,0.024-0.386,0.031c-0.169,0.008-0.317,0.014-0.45,0.014c-0.118,0-0.256-0.006-0.418-0.014
					c-0.163-0.008-0.294-0.02-0.396-0.031l-7.57-13.142v13.142c-0.103,0.015-0.217,0.024-0.342,0.031s-0.254,0.014-0.386,0.014
					c-0.146,0-0.286-0.006-0.417-0.014c-0.134-0.008-0.244-0.02-0.331-0.031V248.763z"/>
				<path fill="#004987" d="M257.966,248.763h8.474c0.016,0.088,0.026,0.196,0.031,0.319c0.009,0.125,0.014,0.247,0.014,0.363
					c0,0.104-0.005,0.226-0.014,0.364c-0.005,0.142-0.019,0.255-0.031,0.341h-6.954v5.351h5.591
					c0.014,0.087,0.024,0.194,0.031,0.317c0.008,0.127,0.011,0.248,0.011,0.364c0,0.104-0.003,0.223-0.011,0.363
					c-0.008,0.14-0.019,0.253-0.031,0.342h-5.591v6.316h7.151c0.016,0.089,0.027,0.196,0.032,0.318
					c0.01,0.125,0.012,0.247,0.012,0.363c0,0.104-0.002,0.225-0.012,0.364c-0.007,0.139-0.019,0.252-0.032,0.342h-8.671V248.763
					L257.966,248.763z"/>
				<path fill="#004987" d="M269.63,248.698c0.322-0.028,0.606-0.056,0.848-0.078c0.242-0.023,0.477-0.043,0.705-0.064
					c0.225-0.024,0.466-0.037,0.715-0.045c0.25-0.007,0.542-0.011,0.88-0.011c0.703,0,1.397,0.073,2.081,0.219
					c0.682,0.146,1.295,0.401,1.836,0.76c0.542,0.36,0.979,0.843,1.312,1.451c0.328,0.61,0.493,1.377,0.493,2.301
					c0,0.573-0.103,1.094-0.308,1.563c-0.205,0.469-0.473,0.891-0.803,1.266c-0.329,0.373-0.713,0.696-1.145,0.968
					c-0.433,0.271-0.876,0.495-1.331,0.671l-0.178,0.065l5.041,6.823c-0.146,0.028-0.295,0.045-0.44,0.045s-0.294,0-0.44,0
					s-0.29,0-0.428,0c-0.14,0-0.284-0.017-0.43-0.045l-5.546-7.328v-0.089l0.484-0.132c0.496-0.132,0.982-0.304,1.45-0.517
					c0.472-0.214,0.885-0.473,1.246-0.771c0.359-0.299,0.648-0.655,0.869-1.066c0.218-0.412,0.328-0.895,0.328-1.453
					c0-1.144-0.352-2.003-1.057-2.575c-0.702-0.572-1.656-0.859-2.86-0.859c-0.308,0-0.594,0.008-0.858,0.022
					c-0.264,0.016-0.582,0.045-0.947,0.089v14.68c-0.102,0.015-0.228,0.026-0.373,0.033c-0.146,0.008-0.278,0.012-0.396,0.012
					c-0.133,0-0.263-0.004-0.396-0.012c-0.132-0.008-0.249-0.02-0.353-0.033L269.63,248.698L269.63,248.698z"/>
				<path fill="#004987" d="M291.401,256.424c0.101-0.015,0.226-0.026,0.372-0.034c0.145-0.007,0.279-0.01,0.396-0.01
					c0.134,0,0.265,0.003,0.397,0.01c0.133,0.009,0.251,0.021,0.354,0.034v7.704c-0.251,0.132-0.547,0.242-0.895,0.328
					c-0.344,0.089-0.71,0.161-1.097,0.221c-0.389,0.06-0.79,0.104-1.201,0.135c-0.41,0.026-0.813,0.041-1.21,0.041
					c-1.056,0-2.04-0.168-2.95-0.505c-0.909-0.338-1.694-0.844-2.354-1.519c-0.659-0.676-1.178-1.513-1.553-2.508
					c-0.373-0.999-0.56-2.158-0.56-3.478c0-1.322,0.185-2.499,0.55-3.533c0.366-1.037,0.876-1.908,1.529-2.619
					c0.653-0.713,1.423-1.256,2.311-1.629c0.889-0.375,1.853-0.562,2.896-0.562c0.924,0,1.696,0.063,2.312,0.187
					c0.616,0.125,1.112,0.247,1.497,0.365c-0.03,0.263-0.072,0.49-0.121,0.682c-0.053,0.19-0.13,0.411-0.232,0.66
					c-0.322-0.117-0.757-0.24-1.3-0.364c-0.541-0.123-1.232-0.188-2.067-0.188c-0.836,0-1.608,0.157-2.313,0.475
					c-0.703,0.315-1.308,0.773-1.814,1.375c-0.507,0.601-0.904,1.334-1.19,2.202c-0.284,0.865-0.429,1.848-0.429,2.949
					c0,1.13,0.155,2.106,0.464,2.938c0.309,0.829,0.726,1.516,1.255,2.059c0.529,0.541,1.148,0.945,1.86,1.208
					c0.711,0.264,1.471,0.396,2.276,0.396c0.661,0,1.214-0.026,1.662-0.077c0.447-0.051,0.833-0.135,1.156-0.254V256.424
					L291.401,256.424z"/>
				<path fill="#004987" d="M300.027,258.713l-5.085-9.95c0.089-0.015,0.213-0.025,0.376-0.031c0.16-0.007,0.314-0.013,0.463-0.013
					c0.131,0,0.289,0.005,0.473,0.013c0.183,0.008,0.326,0.018,0.428,0.031l4.139,8.364l4.071-8.364
					c0.117-0.015,0.245-0.025,0.386-0.031c0.139-0.007,0.273-0.013,0.406-0.013c0.146,0,0.303,0.005,0.463,0.013
					c0.163,0.008,0.286,0.018,0.375,0.031l-4.976,9.95v5.877c-0.103,0.013-0.218,0.024-0.353,0.031
					c-0.131,0.008-0.262,0.012-0.396,0.012c-0.146,0-0.29-0.004-0.429-0.012c-0.138-0.008-0.252-0.02-0.342-0.031V258.713
					L300.027,258.713z"/>
				<path fill="#004987" d="M324.194,262.785c0.118,0.221,0.221,0.433,0.309,0.639s0.153,0.417,0.198,0.638
					c-0.499,0.251-1.094,0.445-1.784,0.585c-0.688,0.14-1.415,0.21-2.178,0.21c-1.072,0-2.05-0.179-2.938-0.53
					c-0.892-0.352-1.648-0.865-2.277-1.541c-0.635-0.674-1.125-1.511-1.478-2.509c-0.352-0.997-0.527-2.142-0.527-3.433
					c0-1.322,0.171-2.499,0.517-3.533c0.345-1.037,0.829-1.907,1.453-2.619c0.623-0.713,1.377-1.256,2.268-1.629
					c0.889-0.375,1.881-0.562,2.982-0.562c0.925,0,1.696,0.065,2.313,0.197c0.616,0.133,1.063,0.243,1.342,0.33
					c-0.028,0.264-0.07,0.484-0.122,0.66c-0.051,0.176-0.127,0.389-0.229,0.639c-0.191-0.06-0.387-0.118-0.584-0.177
					c-0.198-0.059-0.422-0.11-0.672-0.153s-0.539-0.081-0.869-0.111c-0.329-0.028-0.716-0.043-1.156-0.043
					c-0.865,0-1.643,0.157-2.331,0.475c-0.688,0.315-1.276,0.773-1.762,1.375c-0.484,0.601-0.858,1.334-1.122,2.202
					c-0.264,0.865-0.397,1.848-0.397,2.949c0,1.13,0.147,2.111,0.44,2.947c0.294,0.836,0.702,1.529,1.222,2.08
					c0.521,0.55,1.131,0.958,1.827,1.222c0.695,0.264,1.447,0.396,2.257,0.396c0.688,0,1.316-0.065,1.879-0.196
					C323.339,263.158,323.813,262.99,324.194,262.785z"/>
				<path fill="#004987" d="M332.999,264.852c-1.102,0-2.063-0.2-2.886-0.604c-0.819-0.405-1.5-0.97-2.036-1.695
					c-0.534-0.728-0.938-1.593-1.21-2.598c-0.271-1.006-0.407-2.103-0.407-3.29c0-1.189,0.136-2.281,0.407-3.279
					c0.272-0.996,0.676-1.859,1.21-2.585c0.536-0.727,1.214-1.291,2.036-1.695c0.823-0.404,1.782-0.605,2.886-0.605
					c1.101,0,2.06,0.201,2.883,0.605c0.821,0.404,1.499,0.969,2.038,1.695c0.533,0.726,0.938,1.589,1.209,2.585
					c0.271,0.998,0.407,2.092,0.407,3.279c0,1.188-0.137,2.284-0.407,3.29c-0.271,1.005-0.676,1.87-1.209,2.598
					c-0.536,0.726-1.217,1.29-2.038,1.695C335.058,264.651,334.099,264.852,332.999,264.852z M332.999,263.467
					c0.851,0,1.584-0.165,2.201-0.495c0.615-0.331,1.127-0.796,1.54-1.397c0.412-0.603,0.717-1.321,0.914-2.159
					c0.197-0.835,0.297-1.753,0.297-2.751c0-0.997-0.098-1.915-0.297-2.752c-0.197-0.835-0.502-1.55-0.914-2.145
					c-0.413-0.596-0.925-1.057-1.54-1.388c-0.617-0.329-1.351-0.495-2.201-0.495c-0.852,0-1.59,0.166-2.214,0.495
					c-0.622,0.331-1.137,0.794-1.541,1.388s-0.704,1.31-0.901,2.145c-0.198,0.837-0.298,1.755-0.298,2.752
					c0,0.998,0.099,1.916,0.298,2.751c0.196,0.835,0.497,1.556,0.901,2.159c0.404,0.602,0.919,1.066,1.541,1.397
					C331.409,263.302,332.147,263.467,332.999,263.467z"/>
				<path fill="#004987" d="M342.946,248.763c0.103-0.015,0.239-0.024,0.407-0.031s0.31-0.012,0.429-0.012
					c0.117,0,0.258,0.004,0.42,0.012s0.291,0.019,0.396,0.031l7.57,13.252v-13.252c0.102-0.015,0.217-0.024,0.342-0.031
					c0.123-0.008,0.254-0.012,0.386-0.012c0.115,0,0.244,0.004,0.384,0.012c0.139,0.008,0.26,0.019,0.362,0.031v15.827
					c-0.087,0.015-0.213,0.024-0.384,0.031c-0.168,0.008-0.318,0.014-0.451,0.014c-0.119,0-0.256-0.006-0.418-0.014
					c-0.164-0.008-0.295-0.02-0.396-0.031l-7.57-13.142v13.142c-0.105,0.015-0.219,0.024-0.342,0.031
					c-0.126,0.007-0.254,0.014-0.387,0.014c-0.146,0-0.285-0.006-0.42-0.014c-0.131-0.008-0.241-0.02-0.328-0.031V248.763z"/>
				<path fill="#004987" d="M357.273,262.829c0.205,0.057,0.421,0.125,0.641,0.196c0.219,0.073,0.465,0.14,0.736,0.197
					c0.271,0.059,0.576,0.11,0.914,0.155c0.337,0.043,0.726,0.065,1.167,0.065c0.701,0,1.308-0.084,1.815-0.252
					c0.508-0.169,0.926-0.396,1.256-0.682c0.328-0.287,0.575-0.624,0.738-1.014c0.161-0.389,0.241-0.811,0.241-1.265
					c0-0.44-0.055-0.818-0.165-1.134c-0.11-0.316-0.302-0.605-0.572-0.87c-0.271-0.262-0.646-0.518-1.123-0.758
					c-0.478-0.241-1.074-0.502-1.794-0.781c-0.512-0.192-1.001-0.396-1.464-0.617c-0.461-0.218-0.869-0.487-1.221-0.803
					c-0.353-0.315-0.631-0.694-0.836-1.135c-0.205-0.439-0.308-0.988-0.308-1.65c0-1.188,0.426-2.15,1.288-2.885
					c0.855-0.733,2.106-1.099,3.748-1.099c0.324,0,0.65,0.014,0.984,0.042c0.328,0.03,0.638,0.068,0.921,0.11
					c0.289,0.044,0.553,0.096,0.797,0.155c0.241,0.058,0.434,0.108,0.58,0.153c-0.026,0.219-0.068,0.444-0.121,0.672
					c-0.049,0.228-0.112,0.443-0.186,0.647c-0.354-0.117-0.805-0.222-1.354-0.318c-0.55-0.094-1.099-0.144-1.642-0.144
					c-1.218,0-2.09,0.251-2.617,0.751c-0.528,0.499-0.793,1.13-0.793,1.892c0,0.396,0.08,0.742,0.244,1.035
					c0.16,0.294,0.383,0.551,0.669,0.771c0.287,0.221,0.629,0.421,1.025,0.604c0.394,0.186,0.819,0.365,1.276,0.54
					c0.615,0.249,1.191,0.506,1.727,0.771c0.533,0.262,0.993,0.572,1.374,0.924c0.381,0.354,0.683,0.766,0.903,1.243
					c0.219,0.477,0.328,1.054,0.328,1.727c0,0.765-0.136,1.443-0.406,2.039c-0.271,0.594-0.657,1.092-1.153,1.494
					c-0.5,0.405-1.109,0.712-1.829,0.926c-0.717,0.214-1.526,0.318-2.419,0.318c-0.868,0-1.585-0.063-2.157-0.186
					c-0.574-0.126-1.109-0.27-1.608-0.431c0.029-0.22,0.081-0.458,0.154-0.715C357.105,263.264,357.186,263.034,357.273,262.829z"/>
				<path fill="#004987" d="M369.553,248.763h8.475c0.016,0.088,0.028,0.196,0.033,0.319c0.008,0.125,0.011,0.247,0.011,0.363
					c0,0.104-0.003,0.226-0.011,0.364c-0.008,0.142-0.018,0.255-0.033,0.341h-6.956v5.351h5.592
					c0.016,0.087,0.026,0.194,0.034,0.317c0.006,0.127,0.011,0.248,0.011,0.364c0,0.104-0.005,0.223-0.011,0.363
					c-0.011,0.14-0.021,0.253-0.034,0.342h-5.592v6.316h7.155c0.013,0.089,0.026,0.196,0.031,0.318
					c0.008,0.125,0.014,0.247,0.014,0.363c0,0.104-0.006,0.225-0.014,0.364c-0.008,0.139-0.019,0.252-0.031,0.342h-8.674V248.763
					L369.553,248.763z"/>
				<path fill="#004987" d="M381.219,248.698c0.324-0.028,0.607-0.056,0.85-0.078c0.241-0.023,0.475-0.043,0.703-0.064
					c0.226-0.024,0.466-0.037,0.716-0.045c0.248-0.007,0.541-0.011,0.879-0.011c0.705,0,1.397,0.073,2.081,0.219
					c0.684,0.146,1.296,0.401,1.837,0.76c0.541,0.36,0.98,0.843,1.312,1.451c0.328,0.61,0.494,1.377,0.494,2.301
					c0,0.573-0.104,1.094-0.309,1.563c-0.204,0.469-0.473,0.891-0.803,1.266c-0.329,0.373-0.712,0.696-1.146,0.968
					c-0.432,0.271-0.875,0.495-1.33,0.671l-0.179,0.065l5.042,6.823c-0.147,0.028-0.294,0.045-0.438,0.045c-0.147,0-0.297,0-0.441,0
					c-0.147,0-0.292,0-0.428,0c-0.141,0-0.285-0.017-0.432-0.045l-5.546-7.328v-0.089l0.485-0.132
					c0.497-0.132,0.982-0.304,1.451-0.517c0.47-0.214,0.885-0.473,1.245-0.771c0.359-0.299,0.648-0.655,0.869-1.066
					c0.219-0.412,0.328-0.895,0.328-1.453c0-1.144-0.352-2.003-1.057-2.575c-0.703-0.572-1.657-0.859-2.86-0.859
					c-0.308,0-0.594,0.008-0.858,0.022c-0.264,0.016-0.582,0.045-0.947,0.089v14.68c-0.102,0.015-0.229,0.026-0.373,0.033
					c-0.146,0.008-0.278,0.012-0.396,0.012c-0.134,0-0.263-0.004-0.397-0.012c-0.131-0.008-0.248-0.02-0.352-0.033V248.698
					L381.219,248.698z"/>
				<path fill="#004987" d="M392.378,248.763c0.09-0.015,0.219-0.024,0.387-0.031c0.168-0.008,0.325-0.012,0.475-0.012
					c0.132,0,0.287,0.004,0.463,0.012c0.177,0.008,0.315,0.019,0.417,0.031l4.422,14.329l4.359-14.329
					c0.119-0.015,0.255-0.024,0.407-0.031c0.155-0.008,0.3-0.012,0.429-0.012c0.147,0,0.305,0.004,0.476,0.012
					c0.168,0.008,0.297,0.019,0.383,0.031l-5.191,15.827c-0.103,0.015-0.252,0.024-0.441,0.031
					c-0.191,0.008-0.352,0.014-0.483,0.014c-0.146,0-0.307-0.006-0.482-0.014c-0.177-0.008-0.316-0.02-0.421-0.031L392.378,248.763z
					"/>
				<path fill="#004987" d="M409.788,248.763c0.103-0.015,0.242-0.024,0.418-0.031c0.179-0.007,0.339-0.012,0.486-0.012
					c0.16,0,0.326,0.004,0.494,0.012s0.305,0.019,0.406,0.031l5.284,15.827c-0.086,0.015-0.213,0.024-0.373,0.031
					c-0.162,0.007-0.315,0.014-0.463,0.014c-0.134,0-0.272-0.006-0.42-0.014s-0.271-0.02-0.373-0.031l-1.319-4.029h-6.516
					l-1.256,4.029c-0.118,0.015-0.252,0.024-0.407,0.031c-0.155,0.008-0.297,0.014-0.428,0.014c-0.147,0-0.297-0.006-0.453-0.014
					c-0.154-0.008-0.275-0.02-0.361-0.031L409.788,248.763z M413.488,259.153l-2.841-8.805l-2.796,8.805H413.488z"/>
				<path fill="#004987" d="M420.462,250.129h-4.246c-0.016-0.089-0.028-0.196-0.033-0.319c-0.008-0.124-0.011-0.245-0.011-0.364
					c0-0.102,0.003-0.219,0.011-0.353c0.008-0.132,0.018-0.242,0.033-0.33h10.014c0.016,0.088,0.026,0.191,0.032,0.309
					c0.008,0.117,0.013,0.234,0.013,0.352c0,0.104-0.005,0.225-0.013,0.364c-0.009,0.139-0.019,0.252-0.032,0.342h-4.246v14.461
					c-0.104,0.013-0.221,0.024-0.354,0.031c-0.133,0.008-0.264,0.012-0.396,0.012c-0.146,0-0.289-0.004-0.43-0.012
					c-0.139-0.008-0.252-0.02-0.342-0.031V250.129z"/>
				<path fill="#004987" d="M428.673,248.763c0.104-0.015,0.227-0.024,0.373-0.031c0.145-0.008,0.279-0.012,0.396-0.012
					c0.133,0,0.264,0.004,0.398,0.012c0.131,0.008,0.249,0.019,0.352,0.031v15.827c-0.103,0.015-0.221,0.024-0.352,0.031
					c-0.135,0.008-0.266,0.014-0.398,0.014c-0.146,0-0.291-0.006-0.428-0.014c-0.139-0.008-0.252-0.02-0.342-0.031V248.763
					L428.673,248.763z"/>
				<path fill="#004987" d="M440.139,264.852c-1.1,0-2.06-0.2-2.884-0.604c-0.82-0.405-1.501-0.97-2.034-1.695
					c-0.536-0.728-0.94-1.593-1.211-2.598c-0.272-1.006-0.407-2.103-0.407-3.29c0-1.189,0.135-2.281,0.407-3.279
					c0.271-0.996,0.675-1.859,1.211-2.585c0.533-0.727,1.211-1.291,2.034-1.695c0.822-0.404,1.784-0.605,2.884-0.605
					c1.102,0,2.062,0.201,2.886,0.605c0.819,0.404,1.5,0.969,2.036,1.695c0.533,0.726,0.938,1.589,1.208,2.585
					c0.273,0.998,0.408,2.092,0.408,3.279c0,1.188-0.135,2.284-0.408,3.29c-0.27,1.005-0.675,1.87-1.208,2.598
					c-0.536,0.726-1.214,1.29-2.036,1.695C442.201,264.651,441.241,264.852,440.139,264.852z M440.139,263.467
					c0.853,0,1.585-0.165,2.202-0.495c0.618-0.331,1.13-0.796,1.54-1.397c0.412-0.603,0.717-1.321,0.917-2.159
					c0.194-0.835,0.297-1.753,0.297-2.751c0-0.997-0.1-1.915-0.297-2.752c-0.2-0.835-0.505-1.55-0.917-2.145
					c-0.41-0.596-0.922-1.057-1.54-1.388c-0.617-0.329-1.35-0.495-2.202-0.495c-0.851,0-1.589,0.166-2.212,0.495
					c-0.623,0.331-1.137,0.794-1.539,1.388c-0.407,0.594-0.706,1.31-0.903,2.145c-0.197,0.837-0.298,1.755-0.298,2.752
					c0,0.998,0.097,1.916,0.298,2.751c0.197,0.835,0.496,1.556,0.903,2.159c0.402,0.602,0.916,1.066,1.539,1.397
					C438.55,263.302,439.289,263.467,440.139,263.467z"/>
				<path fill="#004987" d="M450.087,248.763c0.102-0.015,0.238-0.024,0.408-0.031c0.168-0.007,0.313-0.012,0.43-0.012
					c0.116,0,0.255,0.004,0.418,0.012s0.294,0.019,0.397,0.031l7.571,13.252v-13.252c0.101-0.015,0.216-0.024,0.342-0.031
					c0.124-0.008,0.252-0.012,0.384-0.012c0.118,0,0.247,0.004,0.383,0.012c0.141,0.008,0.262,0.019,0.365,0.031v15.827
					c-0.088,0.015-0.215,0.024-0.385,0.031c-0.169,0.008-0.318,0.014-0.45,0.014c-0.118,0-0.258-0.006-0.42-0.014
					c-0.16-0.008-0.295-0.02-0.396-0.031l-7.57-13.142v13.142c-0.105,0.015-0.218,0.024-0.342,0.031
					c-0.126,0.007-0.252,0.014-0.386,0.014c-0.145,0-0.286-0.006-0.417-0.014c-0.135-0.008-0.242-0.02-0.332-0.031V248.763z"/>
			</g>
		</g>
		<g>
			<g>
				<path fill="#004987" d="M12.552,279.506c0.148,1.028,0.27,2.092,0.361,3.194c0.09,1.099,0.137,2.232,0.137,3.391
					c0,0.415-0.008,0.819-0.025,1.217c-0.017,0.398-0.04,0.813-0.074,1.242h2.509c0.231,0,0.393,0.05,0.483,0.15
					c0.091,0.098,0.137,0.254,0.137,0.472v0.719c0,0.432-0.206,0.646-0.62,0.646H3.508c-0.313-0.696-0.558-1.432-0.733-2.212
					c-0.173-0.778-0.259-1.541-0.259-2.286c0-0.991,0.169-1.891,0.51-2.696c0.339-0.802,0.795-1.487,1.367-2.06
					c0.571-0.572,1.233-1.01,1.988-1.317c0.754-0.306,1.543-0.46,2.374-0.46H12.552z M5.1,275.183c0-0.381,0.14-0.711,0.421-0.994
					c0.281-0.281,0.622-0.42,1.019-0.42c0.398,0,0.743,0.139,1.031,0.42c0.291,0.283,0.435,0.613,0.435,0.994
					c0,0.414-0.144,0.761-0.435,1.042c-0.289,0.283-0.633,0.423-1.031,0.423c-0.397,0-0.738-0.14-1.019-0.423
					C5.24,275.946,5.1,275.597,5.1,275.183z M10.068,288.55c0.083-0.529,0.144-1.046,0.186-1.551
					c0.041-0.505,0.063-1.007,0.063-1.503c0-0.697-0.033-1.375-0.099-2.04c-0.067-0.661-0.14-1.315-0.224-1.962H8.577
					c-0.313,0-0.665,0.068-1.055,0.199c-0.39,0.133-0.75,0.356-1.081,0.67c-0.331,0.314-0.613,0.729-0.844,1.243
					c-0.232,0.514-0.349,1.159-0.349,1.938c0,0.514,0.049,1.022,0.149,1.527c0.098,0.507,0.264,0.999,0.497,1.479H10.068z
					 M9.149,275.183c0-0.381,0.14-0.711,0.423-0.994c0.281-0.281,0.62-0.42,1.018-0.42c0.415,0,0.757,0.139,1.032,0.42
					c0.273,0.283,0.411,0.613,0.411,0.994c0,0.414-0.137,0.761-0.411,1.042c-0.273,0.283-0.617,0.423-1.032,0.423
					c-0.398,0-0.737-0.14-1.018-0.423C9.289,275.946,9.149,275.597,9.149,275.183z"/>
				<path fill="#004987" d="M19.236,290.539h-4.497c-0.216,0-0.38-0.041-0.497-0.126c-0.049-0.147-0.075-0.32-0.075-0.522v-0.745
					c0-0.183,0.025-0.348,0.075-0.496c0.133-0.065,0.299-0.1,0.497-0.1h4.497V290.539z"/>
				<path fill="#004987" d="M22.714,290.539h-4.497c-0.215,0-0.38-0.041-0.497-0.126c-0.05-0.147-0.075-0.32-0.075-0.522v-0.745
					c0-0.183,0.025-0.348,0.075-0.496c0.133-0.065,0.298-0.1,0.497-0.1h4.497V290.539z"/>
				<path fill="#004987" d="M26.192,290.539h-4.498c-0.214,0-0.38-0.041-0.496-0.126c-0.05-0.147-0.075-0.32-0.075-0.522v-0.745
					c0-0.183,0.025-0.348,0.075-0.496c0.133-0.065,0.298-0.1,0.496-0.1h4.498V290.539z"/>
				<path fill="#004987" d="M29.669,290.539h-4.496c-0.214,0-0.38-0.041-0.497-0.126c-0.05-0.147-0.074-0.32-0.074-0.522v-0.745
					c0-0.183,0.024-0.348,0.074-0.496c0.133-0.065,0.298-0.1,0.497-0.1h4.496V290.539z"/>
				<path fill="#004987" d="M33.147,290.539H28.65c-0.215,0-0.381-0.041-0.497-0.126c-0.05-0.147-0.076-0.32-0.076-0.522v-0.745
					c0-0.183,0.026-0.348,0.076-0.496c0.133-0.065,0.299-0.1,0.497-0.1h4.497V290.539z"/>
				<path fill="#004987" d="M36.625,290.539H32.13c-0.216,0-0.381-0.041-0.498-0.126c-0.05-0.147-0.074-0.32-0.074-0.522v-0.745
					c0-0.183,0.024-0.348,0.074-0.496c0.133-0.065,0.299-0.1,0.498-0.1h4.495L36.625,290.539L36.625,290.539z"/>
				<path fill="#004987" d="M40.103,290.539h-4.497c-0.216,0-0.381-0.041-0.497-0.126c-0.05-0.147-0.075-0.32-0.075-0.522v-0.745
					c0-0.183,0.025-0.348,0.075-0.496c0.133-0.065,0.299-0.1,0.497-0.1h4.497V290.539z"/>
				<path fill="#004987" d="M39.334,290.539c-0.233,0-0.377-0.058-0.435-0.174c-0.058-0.115-0.086-0.265-0.086-0.447v-0.82
					c0-0.166,0.032-0.298,0.099-0.396c0.067-0.1,0.207-0.15,0.422-0.15h2.881c-0.197-0.826-0.299-1.663-0.299-2.507
					c0-1.027,0.175-1.946,0.523-2.759c0.348-0.813,0.819-1.494,1.416-2.049c0.596-0.555,1.283-0.981,2.063-1.279
					c0.778-0.299,1.598-0.447,2.458-0.447h3.577c0.133,1.026,0.25,2.091,0.348,3.192c0.1,1.102,0.15,2.232,0.15,3.391
					c0,0.696-0.022,1.415-0.063,2.151c-0.041,0.737-0.112,1.502-0.21,2.297H39.334V290.539z M44.65,275.183
					c0-0.381,0.14-0.711,0.421-0.994c0.281-0.281,0.622-0.42,1.019-0.42c0.398,0,0.743,0.139,1.032,0.42
					c0.29,0.283,0.434,0.613,0.434,0.994c0,0.414-0.144,0.761-0.434,1.042c-0.29,0.283-0.634,0.423-1.032,0.423
					c-0.396,0-0.737-0.14-1.019-0.423C44.791,275.946,44.65,275.597,44.65,275.183z M49.469,288.55
					c0.083-0.529,0.14-1.046,0.175-1.551c0.032-0.505,0.049-1.007,0.049-1.503c0-0.697-0.03-1.375-0.087-2.04
					c-0.058-0.661-0.137-1.315-0.235-1.962h-1.417c-0.315,0-0.663,0.068-1.042,0.199c-0.382,0.133-0.738,0.356-1.069,0.67
					c-0.331,0.314-0.612,0.729-0.845,1.243c-0.231,0.514-0.348,1.159-0.348,1.938c0,0.514,0.049,1.022,0.148,1.527
					c0.099,0.507,0.265,0.999,0.496,1.479H49.469z M48.699,275.183c0-0.381,0.14-0.711,0.422-0.994
					c0.281-0.281,0.621-0.42,1.018-0.42c0.415,0,0.758,0.139,1.032,0.42c0.273,0.283,0.411,0.613,0.411,0.994
					c0,0.414-0.137,0.761-0.411,1.042c-0.273,0.283-0.617,0.423-1.032,0.423c-0.397,0-0.737-0.14-1.018-0.423
					C48.84,275.946,48.699,275.597,48.699,275.183z"/>
				<path fill="#004987" d="M56.452,290.539V270.96h2.782v17.59h2.186c0.231,0,0.393,0.05,0.484,0.15
					c0.09,0.098,0.137,0.254,0.137,0.472v0.719c0,0.432-0.207,0.646-0.622,0.646h-4.968V290.539z"/>
				<path fill="#004987" d="M65.197,290.539h-4.498c-0.215,0-0.381-0.041-0.497-0.126c-0.049-0.147-0.075-0.32-0.075-0.522v-0.745
					c0-0.183,0.026-0.348,0.075-0.496c0.133-0.065,0.298-0.1,0.497-0.1h4.498V290.539z"/>
				<path fill="#004987" d="M68.674,290.539h-4.496c-0.215,0-0.38-0.041-0.498-0.126c-0.049-0.147-0.073-0.32-0.073-0.522v-0.745
					c0-0.183,0.024-0.348,0.073-0.496c0.133-0.065,0.299-0.1,0.498-0.1h4.496V290.539z"/>
				<path fill="#004987" d="M72.153,290.539h-4.497c-0.214,0-0.38-0.041-0.497-0.126c-0.05-0.147-0.074-0.32-0.074-0.522v-0.745
					c0-0.183,0.024-0.348,0.074-0.496c0.132-0.065,0.298-0.1,0.497-0.1h4.497V290.539z"/>
				<path fill="#004987" d="M75.631,290.539h-4.498c-0.215,0-0.38-0.041-0.496-0.126c-0.05-0.147-0.076-0.32-0.076-0.522v-0.745
					c0-0.183,0.026-0.348,0.076-0.496c0.133-0.065,0.299-0.1,0.496-0.1h4.498V290.539z"/>
				<path fill="#004987" d="M79.109,290.539h-4.496c-0.215,0-0.381-0.041-0.498-0.126c-0.05-0.147-0.075-0.32-0.075-0.522v-0.745
					c0-0.183,0.025-0.348,0.075-0.496c0.133-0.065,0.298-0.1,0.498-0.1h4.496V290.539z"/>
				<path fill="#004987" d="M82.586,290.539h-4.497c-0.216,0-0.381-0.041-0.497-0.126c-0.05-0.147-0.075-0.32-0.075-0.522v-0.745
					c0-0.183,0.025-0.348,0.075-0.496c0.133-0.065,0.299-0.1,0.497-0.1h4.497V290.539z"/>
				<path fill="#004987" d="M86.064,290.539h-4.496c-0.215,0-0.38-0.041-0.498-0.126c-0.05-0.147-0.075-0.32-0.075-0.522v-0.745
					c0-0.183,0.025-0.348,0.075-0.496c0.133-0.065,0.299-0.1,0.498-0.1h4.496V290.539z"/>
				<path fill="#004987" d="M89.542,290.539h-4.496c-0.216,0-0.381-0.041-0.497-0.126c-0.05-0.147-0.076-0.32-0.076-0.522v-0.745
					c0-0.183,0.025-0.348,0.076-0.496c0.133-0.065,0.299-0.1,0.497-0.1h4.496V290.539z"/>
				<path fill="#004987" d="M88.773,290.539c-0.232,0-0.377-0.058-0.436-0.174c-0.058-0.115-0.085-0.265-0.085-0.447v-0.82
					c0-0.166,0.032-0.298,0.099-0.396c0.066-0.1,0.207-0.15,0.422-0.15h2.632v-17.59h2.782v14.112
					c0.331-1.126,0.761-2.106,1.292-2.942c0.53-0.836,1.118-1.528,1.764-2.074c0.646-0.547,1.333-0.957,2.063-1.23
					c0.729-0.273,1.449-0.411,2.16-0.411c0.895,0,1.698,0.17,2.411,0.511c0.711,0.341,1.313,0.814,1.801,1.428
					c0.487,0.614,0.865,1.343,1.13,2.188c0.265,0.845,0.398,1.772,0.398,2.782v3.228h2.334c0.232,0,0.394,0.051,0.483,0.15
					c0.09,0.099,0.137,0.254,0.137,0.472v0.72c0,0.431-0.207,0.646-0.621,0.646H88.773z M104.35,285.619
					c0-1.656-0.361-2.857-1.082-3.604c-0.72-0.747-1.652-1.119-2.794-1.119c-0.646,0-1.301,0.163-1.963,0.484
					c-0.663,0.323-1.292,0.81-1.887,1.454c-0.596,0.645-1.131,1.445-1.602,2.396c-0.473,0.954-0.849,2.059-1.132,3.317h10.46
					V285.619z"/>
				<path fill="#004987" d="M109.07,290.539c-0.232,0-0.376-0.058-0.434-0.174c-0.059-0.115-0.087-0.265-0.087-0.447v-0.82
					c0-0.166,0.033-0.298,0.099-0.396c0.067-0.1,0.207-0.15,0.422-0.15h3.379v-17.59h2.808v19.579L109.07,290.539L109.07,290.539z"
					/>
				<path fill="#004987" d="M119.38,270.96h2.782v19.579h-2.782V270.96z"/>
				<path fill="#004987" d="M153.664,288.55c0.23,0,0.393,0.05,0.484,0.15c0.091,0.098,0.137,0.254,0.137,0.472v0.719
					c0,0.432-0.207,0.646-0.621,0.646h-20.893v-1.988h2.708v-17.59h2.782v14.112c0.331-1.128,0.762-2.107,1.292-2.943
					c0.531-0.837,1.118-1.529,1.765-2.074c0.646-0.548,1.333-0.958,2.062-1.231c0.728-0.272,1.449-0.41,2.161-0.41
					c0.894,0,1.694,0.171,2.397,0.509c0.702,0.342,1.304,0.816,1.801,1.43s0.877,1.343,1.144,2.188
					c0.264,0.846,0.397,1.772,0.397,2.783v3.228L153.664,288.55L153.664,288.55z M148.423,285.619c0-1.656-0.362-2.857-1.082-3.604
					c-0.721-0.747-1.653-1.119-2.795-1.119c-0.645,0-1.299,0.163-1.963,0.484c-0.662,0.323-1.292,0.81-1.888,1.454
					c-0.596,0.645-1.129,1.445-1.602,2.396c-0.472,0.954-0.849,2.059-1.13,3.317h10.459V285.619z M143.901,275.21
					c0-0.399,0.138-0.737,0.411-1.021c0.272-0.281,0.615-0.42,1.031-0.42c0.396,0,0.732,0.139,1.005,0.42
					c0.273,0.283,0.411,0.621,0.411,1.021c0,0.396-0.138,0.736-0.411,1.018c-0.273,0.282-0.609,0.422-1.005,0.422
					c-0.416,0-0.757-0.14-1.031-0.422C144.038,275.946,143.901,275.606,143.901,275.21z"/>
				<path fill="#004987" d="M157.466,290.539h-4.498c-0.214,0-0.38-0.041-0.496-0.126c-0.05-0.147-0.076-0.32-0.076-0.522v-0.745
					c0-0.183,0.026-0.348,0.076-0.496c0.133-0.065,0.298-0.1,0.496-0.1h4.498V290.539z"/>
				<path fill="#004987" d="M160.943,290.539h-4.496c-0.215,0-0.38-0.041-0.498-0.126c-0.05-0.147-0.074-0.32-0.074-0.522v-0.745
					c0-0.183,0.024-0.348,0.074-0.496c0.133-0.065,0.299-0.1,0.498-0.1h4.496V290.539z"/>
				<path fill="#004987" d="M164.421,290.539h-4.498c-0.215,0-0.381-0.041-0.496-0.126c-0.05-0.147-0.076-0.32-0.076-0.522v-0.745
					c0-0.183,0.026-0.348,0.076-0.496c0.133-0.065,0.299-0.1,0.496-0.1h4.498V290.539z"/>
				<path fill="#004987" d="M167.898,290.539h-4.495c-0.216,0-0.382-0.041-0.498-0.126c-0.05-0.147-0.075-0.32-0.075-0.522v-0.745
					c0-0.183,0.024-0.348,0.075-0.496c0.133-0.065,0.298-0.1,0.498-0.1h4.495V290.539z"/>
				<path fill="#004987" d="M167.129,290.539c-0.232,0-0.376-0.058-0.435-0.174c-0.058-0.115-0.086-0.265-0.086-0.447v-0.82
					c0-0.166,0.033-0.298,0.1-0.396c0.066-0.1,0.206-0.15,0.421-0.15h2.757c-0.133-0.414-0.223-0.826-0.273-1.24
					c-0.05-0.415-0.074-0.838-0.074-1.267c0-1.027,0.178-1.946,0.533-2.759c0.354-0.813,0.832-1.494,1.429-2.049
					c0.596-0.555,1.282-0.981,2.062-1.279c0.779-0.299,1.598-0.447,2.459-0.447h3.578c0.132,1.026,0.25,2.091,0.348,3.192
					c0.1,1.102,0.149,2.232,0.149,3.391c0,0.415-0.01,0.819-0.025,1.219c-0.017,0.396-0.042,0.812-0.076,1.241h2.535
					c0.232,0,0.393,0.05,0.484,0.149c0.091,0.099,0.137,0.257,0.137,0.472v0.721c0,0.43-0.207,0.646-0.621,0.646L167.129,290.539
					L167.129,290.539z M177.116,288.55c0.083-0.529,0.145-1.046,0.187-1.551c0.042-0.505,0.063-1.007,0.063-1.503
					c0-0.697-0.033-1.375-0.1-2.04c-0.067-0.661-0.14-1.315-0.223-1.962h-1.44c-0.315,0-0.664,0.068-1.043,0.199
					c-0.382,0.133-0.739,0.356-1.069,0.67c-0.332,0.314-0.613,0.729-0.846,1.243c-0.231,0.514-0.347,1.159-0.347,1.938
					c0,0.514,0.048,1.022,0.148,1.527c0.1,0.507,0.265,0.999,0.496,1.479H177.116z M173.861,275.21c0-0.399,0.137-0.737,0.41-1.021
					c0.273-0.281,0.618-0.42,1.032-0.42c0.396,0,0.733,0.139,1.006,0.42c0.273,0.283,0.411,0.621,0.411,1.021
					c0,0.396-0.137,0.736-0.411,1.018c-0.273,0.282-0.61,0.422-1.006,0.422c-0.414,0-0.757-0.14-1.032-0.422
					C173.999,275.946,173.861,275.606,173.861,275.21z"/>
				<path fill="#004987" d="M186.308,290.539h-4.495c-0.216,0-0.381-0.041-0.498-0.126c-0.05-0.147-0.074-0.32-0.074-0.522v-0.745
					c0-0.183,0.024-0.348,0.074-0.496c0.132-0.065,0.298-0.1,0.498-0.1h4.495V290.539z"/>
				<path fill="#004987" d="M189.787,290.539h-4.497c-0.216,0-0.381-0.041-0.497-0.126c-0.05-0.147-0.076-0.32-0.076-0.522v-0.745
					c0-0.183,0.025-0.348,0.076-0.496c0.134-0.065,0.299-0.1,0.497-0.1h4.497V290.539z"/>
				<path fill="#004987" d="M204.469,288.55c0.249,0,0.419,0.05,0.51,0.15c0.089,0.098,0.137,0.254,0.137,0.472v0.719
					c0,0.432-0.216,0.646-0.646,0.646h-15.451c-0.233,0-0.377-0.058-0.435-0.173c-0.058-0.116-0.086-0.266-0.086-0.448v-0.819
					c0-0.166,0.032-0.299,0.099-0.396c0.067-0.101,0.207-0.15,0.422-0.15h10.483c-0.233-0.497-0.415-1.046-0.546-1.651
					c-0.133-0.605-0.249-1.213-0.348-1.826c-0.099-0.629-0.228-1.246-0.386-1.852c-0.157-0.604-0.384-1.139-0.683-1.601
					c-0.298-0.463-0.701-0.837-1.205-1.118c-0.506-0.281-1.172-0.423-1.999-0.423c-0.829,0-1.773,0.191-2.832,0.571
					c-0.083-0.231-0.153-0.463-0.211-0.695c-0.058-0.231-0.12-0.464-0.187-0.696c0.234-0.098,0.497-0.197,0.796-0.3
					c0.298-0.099,0.617-0.188,0.956-0.273c0.34-0.082,0.693-0.146,1.056-0.196c0.363-0.05,0.721-0.076,1.069-0.076
					c1.374,0,2.473,0.233,3.292,0.697s1.457,1.068,1.913,1.813c0.457,0.747,0.783,1.588,0.981,2.522
					c0.197,0.935,0.356,1.877,0.472,2.82c0.051,0.398,0.101,0.787,0.15,1.167c0.05,0.381,0.115,0.755,0.197,1.117L204.469,288.55
					L204.469,288.55z"/>
				<path fill="#004987" d="M203.996,290.539c-0.231,0-0.375-0.058-0.434-0.174c-0.058-0.115-0.087-0.265-0.087-0.447v-0.82
					c0-0.166,0.033-0.298,0.1-0.396c0.066-0.1,0.206-0.15,0.421-0.15h3.38v-17.59h2.807v19.579L203.996,290.539L203.996,290.539z"/>
				<path fill="#004987" d="M228.816,295.954c-1.507,0-2.803-0.202-3.889-0.61c-1.086-0.405-1.979-0.938-2.683-1.599
					c-0.703-0.665-1.221-1.417-1.552-2.262c-0.331-0.846-0.497-1.7-0.497-2.56c0-1.042,0.182-1.991,0.546-2.846
					c0.365-0.853,0.786-1.561,1.266-2.122l0.795,0.273c-0.382,0.645-0.63,1.262-0.745,1.849c-0.116,0.59-0.174,1.165-0.174,1.729
					c0,0.91,0.187,1.709,0.559,2.397c0.373,0.687,0.873,1.258,1.502,1.713s1.358,0.8,2.188,1.031
					c0.827,0.232,1.706,0.349,2.633,0.349c1.06,0,2.012-0.134,2.857-0.397c0.845-0.266,1.564-0.693,2.161-1.279
					c0.595-0.59,1.051-1.337,1.366-2.249c0.315-0.91,0.473-2.013,0.473-3.304v-6.561h2.212c1.094,0,2.087,0.067,2.981,0.199
					c0.895,0.133,1.664,0.397,2.311,0.796c0.644,0.397,1.144,0.969,1.49,1.713c0.348,0.746,0.522,1.73,0.522,2.956v3.379h2.135
					c0.232,0,0.393,0.05,0.484,0.15c0.09,0.098,0.137,0.254,0.137,0.472v0.719c0,0.432-0.207,0.646-0.621,0.646h-4.917v-5.366
					c0-1.159-0.365-2.079-1.095-2.758c-0.729-0.679-1.69-1.018-2.881-1.018v4.47c0,1.457-0.188,2.805-0.56,4.038
					s-0.953,2.297-1.739,3.191c-0.788,0.896-1.781,1.596-2.981,2.102C231.901,295.7,230.471,295.954,228.816,295.954z
					 M226.008,299.605c0-0.397,0.141-0.732,0.422-1.004c0.282-0.273,0.621-0.411,1.019-0.411c0.397,0,0.737,0.138,1.018,0.411
					c0.281,0.271,0.422,0.606,0.422,1.004c0,0.416-0.141,0.759-0.422,1.032c-0.281,0.272-0.621,0.409-1.018,0.409
					c-0.398,0-0.737-0.137-1.019-0.409C226.149,300.363,226.008,300.02,226.008,299.605z M230.033,299.605
					c0-0.397,0.144-0.732,0.435-1.004c0.289-0.273,0.633-0.411,1.03-0.411c0.399,0,0.738,0.138,1.021,0.411
					c0.281,0.271,0.421,0.606,0.421,1.004c0,0.416-0.14,0.759-0.421,1.032c-0.283,0.272-0.622,0.409-1.021,0.409
					c-0.396,0-0.741-0.137-1.03-0.409C230.177,300.363,230.033,300.02,230.033,299.605z"/>
				<path fill="#004987" d="M251.025,290.539h-4.497c-0.216,0-0.381-0.041-0.498-0.126c-0.049-0.147-0.073-0.32-0.073-0.522v-0.745
					c0-0.183,0.024-0.348,0.073-0.496c0.134-0.065,0.3-0.1,0.498-0.1h4.497V290.539z"/>
				<path fill="#004987" d="M254.502,290.539h-4.496c-0.216,0-0.381-0.041-0.496-0.126c-0.05-0.147-0.075-0.32-0.075-0.522v-0.745
					c0-0.183,0.025-0.348,0.075-0.496c0.133-0.065,0.298-0.1,0.496-0.1h4.497L254.502,290.539L254.502,290.539z"/>
				<path fill="#004987" d="M253.734,290.539c-0.234,0-0.378-0.058-0.437-0.174c-0.058-0.115-0.085-0.265-0.085-0.447v-0.82
					c0-0.166,0.033-0.298,0.099-0.396c0.066-0.1,0.207-0.15,0.423-0.15h3.727v-9.044h2.808v11.032H253.734z M257.483,275.21
					c0-0.399,0.137-0.737,0.413-1.021c0.272-0.281,0.614-0.42,1.029-0.42c0.398,0,0.733,0.139,1.007,0.42
					c0.272,0.283,0.409,0.621,0.409,1.021c0,0.396-0.137,0.736-0.409,1.018c-0.273,0.282-0.608,0.422-1.007,0.422
					c-0.415,0-0.757-0.14-1.029-0.422C257.62,275.946,257.483,275.606,257.483,275.21z"/>
				<path fill="#004987" d="M264.244,290.539V270.96h2.782v17.59h2.186c0.232,0,0.393,0.05,0.484,0.15
					c0.089,0.098,0.137,0.254,0.137,0.472v0.719c0,0.432-0.206,0.646-0.621,0.646h-4.968V290.539z"/>
				<path fill="#004987" d="M272.987,290.539h-4.497c-0.215,0-0.38-0.041-0.495-0.126c-0.051-0.147-0.075-0.32-0.075-0.522v-0.745
					c0-0.183,0.024-0.348,0.075-0.496c0.132-0.065,0.296-0.1,0.495-0.1h4.497V290.539z"/>
				<path fill="#004987" d="M276.466,290.539h-4.498c-0.214,0-0.38-0.041-0.495-0.126c-0.051-0.147-0.075-0.32-0.075-0.522v-0.745
					c0-0.183,0.024-0.348,0.075-0.496c0.132-0.065,0.297-0.1,0.495-0.1h4.498V290.539z"/>
				<path fill="#004987" d="M279.944,290.539h-4.497c-0.215,0-0.381-0.041-0.496-0.126c-0.051-0.147-0.076-0.32-0.076-0.522v-0.745
					c0-0.183,0.025-0.348,0.076-0.496c0.133-0.065,0.297-0.1,0.496-0.1h4.497V290.539z"/>
				<path fill="#004987" d="M283.421,290.539h-4.497c-0.216,0-0.381-0.041-0.497-0.126c-0.049-0.147-0.074-0.32-0.074-0.522v-0.745
					c0-0.183,0.025-0.348,0.074-0.496c0.133-0.065,0.299-0.1,0.497-0.1h4.497V290.539z"/>
				<path fill="#004987" d="M286.898,290.539h-4.496c-0.216,0-0.382-0.041-0.497-0.126c-0.049-0.147-0.076-0.32-0.076-0.522v-0.745
					c0-0.183,0.027-0.348,0.076-0.496c0.135-0.065,0.297-0.1,0.497-0.1h4.496V290.539z"/>
				<path fill="#004987" d="M290.376,290.539h-4.495c-0.217,0-0.382-0.041-0.498-0.126c-0.049-0.147-0.076-0.32-0.076-0.522v-0.745
					c0-0.183,0.027-0.348,0.076-0.496c0.135-0.065,0.297-0.1,0.498-0.1h4.495V290.539z"/>
				<path fill="#004987" d="M293.854,290.539h-4.496c-0.216,0-0.381-0.041-0.497-0.126c-0.048-0.147-0.074-0.32-0.074-0.522v-0.745
					c0-0.183,0.026-0.348,0.074-0.496c0.133-0.065,0.299-0.1,0.497-0.1h4.496V290.539z"/>
				<path fill="#004987" d="M297.333,290.539h-4.497c-0.215,0-0.38-0.041-0.496-0.126c-0.05-0.147-0.075-0.32-0.075-0.522v-0.745
					c0-0.183,0.025-0.348,0.075-0.496c0.132-0.065,0.298-0.1,0.496-0.1h4.497V290.539z"/>
				<path fill="#004987" d="M300.812,290.539h-4.498c-0.215,0-0.381-0.041-0.496-0.126c-0.051-0.147-0.075-0.32-0.075-0.522v-0.745
					c0-0.183,0.024-0.348,0.075-0.496c0.133-0.065,0.297-0.1,0.496-0.1h4.498V290.539z"/>
				<path fill="#004987" d="M304.291,290.539h-4.498c-0.215,0-0.381-0.041-0.496-0.126c-0.05-0.147-0.075-0.32-0.075-0.522v-0.745
					c0-0.183,0.025-0.348,0.075-0.496c0.134-0.065,0.297-0.1,0.496-0.1h4.498V290.539z"/>
				<path fill="#004987" d="M307.767,290.539h-4.497c-0.215,0-0.379-0.041-0.495-0.126c-0.05-0.147-0.076-0.32-0.076-0.522v-0.745
					c0-0.183,0.026-0.348,0.076-0.496c0.132-0.065,0.297-0.1,0.495-0.1h4.497V290.539z"/>
				<path fill="#004987" d="M311.246,290.539h-4.496c-0.215,0-0.38-0.041-0.496-0.126c-0.05-0.147-0.076-0.32-0.076-0.522v-0.745
					c0-0.183,0.026-0.348,0.076-0.496c0.132-0.065,0.298-0.1,0.496-0.1h4.496V290.539z"/>
				<path fill="#004987" d="M314.725,290.539h-4.496c-0.216,0-0.381-0.041-0.497-0.126c-0.05-0.147-0.076-0.32-0.076-0.522v-0.745
					c0-0.183,0.026-0.348,0.076-0.496c0.133-0.065,0.297-0.1,0.497-0.1h4.496V290.539z"/>
				<path fill="#004987" d="M313.955,290.539c-0.234,0-0.377-0.058-0.435-0.174c-0.059-0.115-0.085-0.265-0.085-0.447v-0.82
					c0-0.166,0.031-0.298,0.097-0.396c0.068-0.1,0.208-0.15,0.423-0.15h1.963c0.331,0,0.611-0.008,0.845-0.024
					c0.23-0.016,0.421-0.079,0.571-0.188c0.146-0.105,0.255-0.276,0.323-0.509c0.065-0.233,0.097-0.563,0.097-0.993v-7.33h2.783
					v5.84c0,0.464,0.042,0.89,0.126,1.278c0.082,0.391,0.218,0.729,0.409,1.021c0.19,0.29,0.439,0.513,0.745,0.669
					c0.307,0.158,0.692,0.236,1.154,0.236h1.168c0.233,0,0.394,0.051,0.484,0.15c0.091,0.099,0.138,0.254,0.138,0.472v0.72
					c0,0.431-0.208,0.646-0.622,0.646h-0.522c-0.876,0-1.581-0.277-2.111-0.833c-0.53-0.555-0.877-1.256-1.041-2.102
					c-0.05,0.432-0.146,0.83-0.288,1.195c-0.139,0.364-0.352,0.676-0.633,0.93c-0.281,0.258-0.633,0.456-1.057,0.597
					c-0.421,0.141-0.948,0.211-1.577,0.211h-2.955V290.539z M317.68,275.21c0-0.399,0.137-0.737,0.41-1.021
					c0.273-0.281,0.617-0.42,1.03-0.42c0.399,0,0.734,0.139,1.007,0.42c0.272,0.283,0.41,0.621,0.41,1.021
					c0,0.396-0.138,0.736-0.41,1.018c-0.272,0.282-0.607,0.422-1.007,0.422c-0.413,0-0.757-0.14-1.03-0.422
					C317.817,275.946,317.68,275.606,317.68,275.21z"/>
				<path fill="#004987" d="M323.667,290.539c-0.233,0-0.378-0.058-0.436-0.174c-0.058-0.115-0.087-0.265-0.087-0.447v-0.82
					c0-0.166,0.035-0.298,0.1-0.396c0.066-0.1,0.206-0.15,0.423-0.15h1.962c0.332,0,0.612-0.008,0.845-0.024
					c0.231-0.016,0.421-0.079,0.573-0.188c0.146-0.105,0.254-0.276,0.321-0.509c0.067-0.233,0.099-0.563,0.099-0.993v-7.33h2.782
					v5.84c0,0.464,0.041,0.89,0.124,1.278c0.084,0.391,0.221,0.729,0.411,1.021c0.19,0.29,0.439,0.513,0.745,0.669
					c0.307,0.158,0.693,0.236,1.156,0.236h1.167c0.23,0,0.393,0.051,0.482,0.15c0.09,0.099,0.137,0.254,0.137,0.472v0.72
					c0,0.431-0.205,0.646-0.619,0.646h-0.523c-0.878,0-1.581-0.277-2.11-0.833c-0.532-0.555-0.879-1.256-1.043-2.102
					c-0.05,0.432-0.144,0.83-0.286,1.195c-0.139,0.364-0.352,0.676-0.633,0.93c-0.284,0.258-0.634,0.456-1.057,0.597
					c-0.421,0.141-0.948,0.211-1.579,0.211h-2.954V290.539z M327.344,293.816c0-0.413,0.138-0.756,0.411-1.031
					c0.273-0.274,0.616-0.411,1.031-0.411c0.396,0,0.736,0.138,1.02,0.411c0.281,0.273,0.42,0.618,0.42,1.031
					c0,0.398-0.139,0.733-0.42,1.007c-0.283,0.273-0.623,0.41-1.02,0.41c-0.415,0-0.757-0.137-1.031-0.41
					S327.344,294.215,327.344,293.816z"/>
				<path fill="#004987" d="M333.382,290.539c-0.234,0-0.379-0.058-0.437-0.174c-0.058-0.115-0.084-0.265-0.084-0.447v-0.82
					c0-0.166,0.031-0.298,0.097-0.396c0.066-0.1,0.208-0.15,0.424-0.15h2.085c0.514,0,0.85-0.119,1.008-0.359
					c0.156-0.24,0.235-0.693,0.235-1.354V270.96h2.782v14.386c0,0.413,0.035,0.815,0.111,1.206c0.076,0.39,0.207,0.732,0.398,1.032
					c0.189,0.298,0.441,0.531,0.758,0.707c0.314,0.174,0.704,0.259,1.167,0.259h1.168c0.25,0,0.418,0.05,0.51,0.15
					c0.089,0.098,0.137,0.254,0.137,0.472v0.719c0,0.432-0.216,0.646-0.646,0.646h-0.496c-0.875,0-1.582-0.276-2.11-0.832
					c-0.531-0.555-0.877-1.257-1.043-2.102c-0.05,0.432-0.149,0.829-0.299,1.194c-0.147,0.364-0.36,0.675-0.634,0.931
					c-0.273,0.258-0.623,0.456-1.043,0.596c-0.423,0.141-0.948,0.212-1.577,0.212h-2.511V290.539z"/>
				<path fill="#004987" d="M342.623,290.539c-0.23,0-0.375-0.058-0.434-0.174c-0.059-0.115-0.086-0.265-0.086-0.447v-0.82
					c0-0.166,0.031-0.298,0.096-0.396c0.068-0.1,0.209-0.15,0.424-0.15h3.379v-17.59h2.809v19.579L342.623,290.539L342.623,290.539z
					"/>
				<path fill="#004987" d="M352.935,270.96h2.78v19.579h-2.78V270.96z"/>
				<path fill="#004987" d="M375.095,290.539c-0.862,0-1.558-0.277-2.087-0.833c-0.533-0.555-0.869-1.256-1.019-2.102v1.593
					c0,1.176-0.107,2.187-0.324,3.031c-0.215,0.844-0.518,1.54-0.906,2.086c-0.389,0.548-0.858,0.949-1.403,1.205
					c-0.546,0.256-1.145,0.385-1.788,0.385c-0.531,0-1.064-0.083-1.604-0.249c-0.536-0.165-1.022-0.39-1.452-0.671
					c0.065-0.183,0.123-0.396,0.174-0.645c0.232,0.082,0.482,0.137,0.758,0.16c0.273,0.024,0.511,0.038,0.707,0.038
					c0.497,0,0.933-0.06,1.306-0.175c0.371-0.115,0.687-0.34,0.944-0.67c0.254-0.333,0.451-0.795,0.582-1.392
					c0.135-0.596,0.201-1.374,0.201-2.335v-10.46h2.808v5.89c0,0.993,0.182,1.767,0.544,2.323c0.365,0.554,0.986,0.831,1.866,0.831
					h1.193c0.246,0,0.417,0.051,0.506,0.15c0.092,0.099,0.137,0.256,0.137,0.472v0.72c0,0.431-0.213,0.646-0.643,0.646H375.095z
					 M369.231,275.21c0-0.399,0.139-0.737,0.412-1.021c0.273-0.281,0.617-0.42,1.03-0.42c0.398,0,0.732,0.139,1.006,0.42
					c0.273,0.283,0.41,0.621,0.41,1.021c0,0.396-0.137,0.736-0.41,1.018c-0.273,0.282-0.607,0.422-1.006,0.422
					c-0.413,0-0.757-0.14-1.03-0.422C369.368,275.946,369.231,275.606,369.231,275.21z"/>
				<path fill="#004987" d="M379.367,290.539h-4.495c-0.216,0-0.381-0.041-0.497-0.126c-0.05-0.147-0.075-0.32-0.075-0.522v-0.745
					c0-0.183,0.025-0.348,0.075-0.496c0.135-0.065,0.297-0.1,0.497-0.1h4.495V290.539z"/>
				<path fill="#004987" d="M382.846,290.539h-4.498c-0.216,0-0.381-0.041-0.497-0.126c-0.05-0.147-0.073-0.32-0.073-0.522v-0.745
					c0-0.183,0.023-0.348,0.073-0.496c0.134-0.065,0.3-0.1,0.497-0.1h4.498V290.539z"/>
				<path fill="#004987" d="M386.325,290.539h-4.498c-0.215,0-0.381-0.041-0.496-0.126c-0.051-0.147-0.074-0.32-0.074-0.522v-0.745
					c0-0.183,0.023-0.348,0.074-0.496c0.133-0.065,0.299-0.1,0.496-0.1h4.498V290.539z"/>
				<path fill="#004987" d="M389.801,290.539h-4.496c-0.215,0-0.381-0.041-0.496-0.126c-0.05-0.147-0.076-0.32-0.076-0.522v-0.745
					c0-0.183,0.026-0.348,0.076-0.496c0.134-0.065,0.297-0.1,0.496-0.1h4.496V290.539z"/>
				<path fill="#004987" d="M393.28,290.539h-4.495c-0.216,0-0.381-0.041-0.498-0.126c-0.049-0.147-0.076-0.32-0.076-0.522v-0.745
					c0-0.183,0.027-0.348,0.076-0.496c0.135-0.065,0.298-0.1,0.498-0.1h4.495V290.539z"/>
				<path fill="#004987" d="M396.755,290.539h-4.494c-0.217,0-0.383-0.041-0.498-0.126c-0.049-0.147-0.076-0.32-0.076-0.522v-0.745
					c0-0.183,0.027-0.348,0.076-0.496c0.135-0.065,0.297-0.1,0.498-0.1h4.494V290.539z"/>
				<path fill="#004987" d="M400.238,290.539h-4.499c-0.216,0-0.381-0.041-0.497-0.126c-0.049-0.147-0.076-0.32-0.076-0.522v-0.745
					c0-0.183,0.027-0.348,0.076-0.496c0.135-0.065,0.297-0.1,0.497-0.1h4.499V290.539z"/>
				<path fill="#004987" d="M403.712,290.539h-4.497c-0.213,0-0.379-0.041-0.494-0.126c-0.051-0.147-0.076-0.32-0.076-0.522v-0.745
					c0-0.183,0.025-0.348,0.076-0.496c0.131-0.065,0.297-0.1,0.494-0.1h4.497V290.539z"/>
				<path fill="#004987" d="M402.944,290.539c-0.232,0-0.377-0.058-0.434-0.174c-0.059-0.115-0.088-0.265-0.088-0.447v-0.82
					c0-0.166,0.032-0.298,0.098-0.396c0.068-0.1,0.208-0.15,0.424-0.15h8.943v-4.321c0-0.547-0.068-1.062-0.197-1.542
					c-0.134-0.479-0.342-0.895-0.623-1.24c-0.281-0.35-0.643-0.628-1.079-0.834c-0.439-0.206-0.975-0.31-1.604-0.31h-3.179v-1.615
					l5.215-8.323l2.163,1.441l-4.199,6.633c0.895,0,1.727,0.078,2.497,0.236c0.77,0.158,1.437,0.451,1.999,0.882
					c0.563,0.43,1.006,1.023,1.329,1.775c0.324,0.755,0.484,1.727,0.484,2.92v6.286H402.944z"/>
				<path fill="#004987" d="M425.973,290.539c-0.862,0-1.556-0.277-2.087-0.833c-0.53-0.555-0.87-1.256-1.019-2.102v1.593
					c0,1.176-0.108,2.187-0.321,3.031c-0.215,0.844-0.52,1.54-0.908,2.086c-0.389,0.548-0.857,0.949-1.404,1.205
					c-0.546,0.256-1.142,0.385-1.788,0.385c-0.531,0-1.065-0.083-1.601-0.249c-0.539-0.165-1.025-0.39-1.456-0.671
					c0.068-0.183,0.127-0.396,0.176-0.645c0.231,0.082,0.483,0.137,0.757,0.16c0.273,0.024,0.51,0.038,0.707,0.038
					c0.5,0,0.933-0.06,1.306-0.175s0.689-0.34,0.943-0.67c0.258-0.333,0.452-0.795,0.586-1.392c0.132-0.596,0.197-1.374,0.197-2.335
					v-10.46h2.809v5.89c0,0.993,0.182,1.767,0.547,2.323c0.365,0.554,0.985,0.831,1.862,0.831h1.193c0.249,0,0.417,0.051,0.51,0.15
					c0.089,0.099,0.136,0.256,0.136,0.472v0.72c0,0.431-0.215,0.646-0.643,0.646H425.973z"/>
				<path fill="#004987" d="M430.248,290.539h-4.498c-0.215,0-0.381-0.041-0.496-0.126c-0.051-0.147-0.074-0.32-0.074-0.522v-0.745
					c0-0.183,0.023-0.348,0.074-0.496c0.133-0.065,0.297-0.1,0.496-0.1h4.498V290.539z"/>
				<path fill="#004987" d="M433.726,290.539h-4.498c-0.215,0-0.381-0.041-0.496-0.126c-0.051-0.147-0.074-0.32-0.074-0.522v-0.745
					c0-0.183,0.023-0.348,0.074-0.496c0.133-0.065,0.297-0.1,0.496-0.1h4.498V290.539z"/>
				<path fill="#004987" d="M432.954,290.539c-0.231,0-0.376-0.058-0.434-0.174c-0.058-0.115-0.086-0.265-0.086-0.447v-0.82
					c0-0.166,0.033-0.298,0.1-0.396c0.065-0.1,0.204-0.15,0.42-0.15h2.486c-0.02-0.43-0.031-0.844-0.051-1.24
					c-0.018-0.399-0.025-0.805-0.025-1.219c0-1.157,0.047-2.288,0.139-3.391c0.09-1.102,0.203-2.166,0.336-3.194h3.603
					c0.859,0,1.68,0.15,2.459,0.448c0.778,0.299,1.467,0.729,2.063,1.291c0.594,0.564,1.066,1.248,1.413,2.05
					c0.35,0.805,0.523,1.718,0.523,2.744c0,0.416-0.029,0.833-0.088,1.257c-0.057,0.421-0.137,0.84-0.236,1.254h2.683
					c0.25,0,0.421,0.051,0.51,0.15c0.092,0.099,0.14,0.254,0.14,0.472v0.72c0,0.431-0.216,0.646-0.646,0.646H432.954z
					 M442.494,288.55c0.234-0.478,0.402-0.972,0.511-1.479c0.107-0.505,0.16-1.014,0.16-1.527c0-0.778-0.116-1.426-0.347-1.938
					c-0.232-0.515-0.518-0.927-0.857-1.243c-0.338-0.313-0.701-0.537-1.08-0.67c-0.383-0.132-0.729-0.199-1.046-0.199h-1.415
					c-0.098,0.646-0.176,1.301-0.234,1.962c-0.061,0.664-0.09,1.343-0.09,2.04c0,0.991,0.076,2.013,0.227,3.054H442.494z"/>
				<path fill="#004987" d="M447.786,290.539c-0.23,0-0.375-0.058-0.434-0.174c-0.058-0.115-0.087-0.265-0.087-0.447v-0.82
					c0-0.166,0.032-0.298,0.098-0.396c0.068-0.1,0.208-0.15,0.423-0.15h3.379v-17.59h2.81v19.579L447.786,290.539L447.786,290.539z"
					/>
				<path fill="#004987" d="M458.099,270.96h2.778v19.579h-2.778V270.96z"/>
			</g>
		</g>
		<g>
			<g>
				<path fill="#004987" d="M221.504,131.912c0.844-0.154,1.748-0.269,2.709-0.345c0.963-0.076,1.981-0.117,3.057-0.117
					c1,0,1.999,0.041,3,0.117c0.998,0.077,1.961,0.193,2.884,0.345v72.564h32.534c0.152,0.847,0.248,1.73,0.287,2.654
					c0.038,0.923,0.058,1.77,0.058,2.538c0,1.846-0.116,3.577-0.345,5.191h-44.185V131.912z"/>
				<path fill="#004987" d="M327.523,202.747c1.691,3.308,2.77,6.5,3.229,9.575c-3.229,1.385-6.535,2.385-9.921,3
					c-3.385,0.614-7.036,0.924-10.958,0.924c-6,0-11.403-0.98-16.21-2.943c-4.807-1.96-8.864-4.767-12.17-8.421
					c-3.309-3.653-5.847-8.095-7.614-13.325c-1.77-5.229-2.654-11.113-2.654-17.651c0-6.613,0.883-12.593,2.654-17.94
					c1.768-5.343,4.306-9.902,7.614-13.669c3.306-3.768,7.344-6.672,12.112-8.71c4.769-2.037,10.113-3.058,16.036-3.058
					c4.385,0,8.152,0.309,11.306,0.923c3.154,0.615,5.96,1.347,8.423,2.191c-0.155,1.77-0.482,3.403-0.979,4.903
					c-0.503,1.5-1.097,3.096-1.79,4.789c-1.152-0.383-2.269-0.732-3.344-1.038c-1.078-0.306-2.231-0.578-3.461-0.808
					c-1.231-0.232-2.597-0.405-4.096-0.52c-1.499-0.114-3.214-0.173-5.132-0.173c-8.384,0-14.902,2.846-19.556,8.538
					c-4.654,5.691-6.979,13.882-6.979,24.574c0,5.462,0.652,10.191,1.963,14.19c1.307,3.999,3.152,7.307,5.537,9.921
					c2.381,2.615,5.249,4.577,8.594,5.884c3.345,1.31,7.095,1.961,11.248,1.961c3.229,0,6.15-0.268,8.768-0.807
					C322.754,204.518,325.216,203.748,327.523,202.747z"/>
				<path fill="#004987" d="M345.29,131.912h45.567c0.231,1.54,0.347,3.229,0.347,5.075c0,0.848-0.019,1.73-0.058,2.653
					c-0.037,0.922-0.134,1.77-0.289,2.539h-33.802v23.765h26.997c0.152,0.77,0.268,1.598,0.347,2.48
					c0.073,0.886,0.113,1.75,0.113,2.596c0,0.849-0.04,1.73-0.113,2.655c-0.079,0.922-0.194,1.769-0.347,2.538h-26.997v28.379
					h34.728c0.229,1.54,0.344,3.23,0.344,5.076c0,0.847-0.021,1.731-0.059,2.653c-0.039,0.926-0.137,1.77-0.285,2.539h-46.496
					v-82.949H345.29z"/>
				<path fill="#004987" d="M459.501,202.747c1.689,3.308,2.768,6.5,3.227,9.575c-3.227,1.385-6.534,2.385-9.921,3
					c-3.385,0.614-7.036,0.924-10.956,0.924c-6.001,0-11.404-0.98-16.211-2.943c-4.807-1.96-8.865-4.767-12.172-8.421
					c-3.308-3.653-5.846-8.095-7.614-13.325c-1.769-5.229-2.653-11.113-2.653-17.651c0-6.613,0.883-12.593,2.653-17.94
					c1.769-5.343,4.307-9.902,7.614-13.669c3.307-3.768,7.344-6.672,12.115-8.71c4.767-2.037,10.11-3.058,16.035-3.058
					c4.383,0,8.15,0.309,11.307,0.923c3.153,0.615,5.959,1.347,8.421,2.191c-0.155,1.77-0.48,3.403-0.98,4.903
					c-0.502,1.5-1.095,3.096-1.788,4.789c-1.152-0.383-2.269-0.732-3.346-1.038c-1.074-0.306-2.23-0.578-3.46-0.808
					c-1.229-0.232-2.597-0.405-4.097-0.52c-1.498-0.114-3.21-0.173-5.131-0.173c-8.385,0-14.903,2.846-19.556,8.538
					c-4.654,5.691-6.979,13.882-6.979,24.574c0,5.462,0.654,10.191,1.963,14.19c1.306,3.999,3.152,7.307,5.536,9.921
					c2.384,2.615,5.249,4.577,8.594,5.884c3.348,1.31,7.098,1.961,11.248,1.961c3.229,0,6.153-0.268,8.768-0.807
					C454.73,204.518,457.192,203.748,459.501,202.747z"/>
			</g>
		</g>
	</g>
</g>
</svg>
